<svg width="138" height="29" viewBox="0 0 138 29" fill="none" xmlns="http://www.w3.org/2000/svg">
<g filter="url(#filter0_d_15_113)">
<path d="M19.896 13.5C19.896 17.0899 17.0324 20 13.5 20C9.96757 20 7.10398 17.0899 7.10398 13.5C7.10398 9.91015 -3.10245 7 13.5 7C30.1024 7 19.896 9.91015 19.896 13.5Z" fill="#27AE60"/>
<path d="M52.342 7.364V9.83H47.194V12.494H51.046V14.888H47.194V20H44.116V7.364H52.342ZM58.2318 20.144C57.2478 20.144 56.3598 19.934 55.5678 19.514C54.7877 19.094 54.1697 18.494 53.7137 17.714C53.2697 16.934 53.0477 16.022 53.0477 14.978C53.0477 13.946 53.2757 13.04 53.7317 12.26C54.1877 11.468 54.8117 10.862 55.6037 10.442C56.3958 10.022 57.2838 9.812 58.2678 9.812C59.2517 9.812 60.1398 10.022 60.9318 10.442C61.7237 10.862 62.3478 11.468 62.8038 12.26C63.2598 13.04 63.4878 13.946 63.4878 14.978C63.4878 16.01 63.2538 16.922 62.7857 17.714C62.3298 18.494 61.6998 19.094 60.8958 19.514C60.1038 19.934 59.2158 20.144 58.2318 20.144ZM58.2318 17.48C58.8198 17.48 59.3178 17.264 59.7258 16.832C60.1458 16.4 60.3558 15.782 60.3558 14.978C60.3558 14.174 60.1518 13.556 59.7437 13.124C59.3478 12.692 58.8558 12.476 58.2678 12.476C57.6678 12.476 57.1697 12.692 56.7738 13.124C56.3777 13.544 56.1797 14.162 56.1797 14.978C56.1797 15.782 56.3717 16.4 56.7558 16.832C57.1518 17.264 57.6438 17.48 58.2318 17.48ZM69.3927 20.144C68.4087 20.144 67.5207 19.934 66.7287 19.514C65.9487 19.094 65.3307 18.494 64.8747 17.714C64.4307 16.934 64.2087 16.022 64.2087 14.978C64.2087 13.946 64.4367 13.04 64.8927 12.26C65.3487 11.468 65.9727 10.862 66.7647 10.442C67.5567 10.022 68.4447 9.812 69.4287 9.812C70.4127 9.812 71.3007 10.022 72.0927 10.442C72.8847 10.862 73.5087 11.468 73.9647 12.26C74.4207 13.04 74.6487 13.946 74.6487 14.978C74.6487 16.01 74.4147 16.922 73.9467 17.714C73.4907 18.494 72.8607 19.094 72.0567 19.514C71.2647 19.934 70.3767 20.144 69.3927 20.144ZM69.3927 17.48C69.9807 17.48 70.4787 17.264 70.8867 16.832C71.3067 16.4 71.5167 15.782 71.5167 14.978C71.5167 14.174 71.3127 13.556 70.9047 13.124C70.5087 12.692 70.0167 12.476 69.4287 12.476C68.8287 12.476 68.3307 12.692 67.9347 13.124C67.5387 13.544 67.3407 14.162 67.3407 14.978C67.3407 15.782 67.5327 16.4 67.9167 16.832C68.3127 17.264 68.8047 17.48 69.3927 17.48ZM75.3696 14.96C75.3696 13.928 75.5616 13.022 75.9456 12.242C76.3416 11.462 76.8756 10.862 77.5476 10.442C78.2196 10.022 78.9696 9.812 79.7976 9.812C80.4576 9.812 81.0576 9.95 81.5976 10.226C82.1496 10.502 82.5816 10.874 82.8936 11.342V6.68H85.9716V20H82.8936V18.56C82.6056 19.04 82.1916 19.424 81.6516 19.712C81.1236 20 80.5056 20.144 79.7976 20.144C78.9696 20.144 78.2196 19.934 77.5476 19.514C76.8756 19.082 76.3416 18.476 75.9456 17.696C75.5616 16.904 75.3696 15.992 75.3696 14.96ZM82.8936 14.978C82.8936 14.21 82.6776 13.604 82.2456 13.16C81.8256 12.716 81.3096 12.494 80.6976 12.494C80.0856 12.494 79.5636 12.716 79.1316 13.16C78.7116 13.592 78.5016 14.192 78.5016 14.96C78.5016 15.728 78.7116 16.34 79.1316 16.796C79.5636 17.24 80.0856 17.462 80.6976 17.462C81.3096 17.462 81.8256 17.24 82.2456 16.796C82.6776 16.352 82.8936 15.746 82.8936 14.978ZM102.357 7.364V20H99.2789V14.798H94.4909V20H91.4129V7.364H94.4909V12.314H99.2789V7.364H102.357ZM114.197 9.956V20H111.119V18.632C110.807 19.076 110.381 19.436 109.841 19.712C109.313 19.976 108.725 20.108 108.077 20.108C107.309 20.108 106.631 19.94 106.043 19.604C105.455 19.256 104.999 18.758 104.675 18.11C104.351 17.462 104.189 16.7 104.189 15.824V9.956H107.249V15.41C107.249 16.082 107.423 16.604 107.771 16.976C108.119 17.348 108.587 17.534 109.175 17.534C109.775 17.534 110.249 17.348 110.597 16.976C110.945 16.604 111.119 16.082 111.119 15.41V9.956H114.197ZM122.228 9.848C123.404 9.848 124.34 10.232 125.036 11C125.744 11.756 126.098 12.8 126.098 14.132V20H123.038V14.546C123.038 13.874 122.864 13.352 122.516 12.98C122.168 12.608 121.7 12.422 121.112 12.422C120.524 12.422 120.056 12.608 119.708 12.98C119.36 13.352 119.186 13.874 119.186 14.546V20H116.108V9.956H119.186V11.288C119.498 10.844 119.918 10.496 120.446 10.244C120.974 9.98 121.568 9.848 122.228 9.848ZM133.535 17.39V20H131.969C130.853 20 129.983 19.73 129.359 19.19C128.735 18.638 128.423 17.744 128.423 16.508V12.512H127.199V9.956H128.423V7.508H131.501V9.956H133.517V12.512H131.501V16.544C131.501 16.844 131.573 17.06 131.717 17.192C131.861 17.324 132.101 17.39 132.437 17.39H133.535Z" fill="#333333"/>
</g>
<defs>
<filter id="filter0_d_15_113" x="0" y="0" width="139" height="35" filterUnits="userSpaceOnUse" color-interpolation-filters="sRGB">
<feFlood flood-opacity="0" result="BackgroundImageFix"/>
<feColorMatrix in="SourceAlpha" type="matrix" values="0 0 0 0 0 0 0 0 0 0 0 0 0 0 0 0 0 0 127 0" result="hardAlpha"/>
<feOffset dy="4"/>
<feGaussianBlur stdDeviation="2"/>
<feComposite in2="hardAlpha" operator="out"/>
<feColorMatrix type="matrix" values="0 0 0 0 0 0 0 0 0 0 0 0 0 0 0 0 0 0 0.25 0"/>
<feBlend mode="normal" in2="BackgroundImageFix" result="effect1_dropShadow_15_113"/>
<feBlend mode="normal" in="SourceGraphic" in2="effect1_dropShadow_15_113" result="shape"/>
</filter>
</defs>
</svg>
